<svg id="Layer_1" data-name="Layer 1" xmlns="http://www.w3.org/2000/svg" viewBox="0 0 100 100"><defs><style>.cls-1{fill:#d69d13;}</style></defs><path class="cls-1" d="M64.1,60.86a6.86,6.86,0,0,0-1.28-.6L62.14,60,62,59.93V54.69Q62,48,62,41.3a14.85,14.85,0,0,0-.13-2A12,12,0,0,0,38,41.22V60.13l-.18,0a3.2,3.2,0,0,0-3.15,3.53v.57c0,.43,0,.87,0,1.31a3.11,3.11,0,0,0,3.09,3.11h6.93v9.95h1.81v-9.9h7.1V83.09h1.77V68.68h7a3.1,3.1,0,0,0,3-3c0-.79,0-1.58,0-2.36A2.79,2.79,0,0,0,64.1,60.86ZM39.79,41.24a10.21,10.21,0,0,1,8.28-10.16,10.19,10.19,0,0,1,12,8.71,16.36,16.36,0,0,1,.12,2q0,6.75,0,13.51v4.93H55.35V51.6c0-1.21-.19-1.39-1.43-1.39h-.66c-.5,0-1,0-1.51,0a1.81,1.81,0,0,0-1.76.73l-.31.43-.42.58-.16-.28-.18-.33a2.89,2.89,0,0,1-.22-.42,1.06,1.06,0,0,0-1.17-.7c-.39,0-.78,0-1.15,0h-.67c-.76,0-1.05.31-1.06,1.07v8.26a2.44,2.44,0,0,1,0,.26l0,.35H39.83l0-.39c0-.14,0-.3,0-.46V54.79Q39.78,48,39.79,41.24ZM53.51,52.11v8.07h-7V51.61l.34.31c.08.08.15.13.22.19a1.25,1.25,0,0,1,.34.35c.13.22.25.45.36.68s.14.29.22.44a1.15,1.15,0,0,0,.75.66,1.18,1.18,0,0,0,.95-.41l.22-.21a3.43,3.43,0,0,0,.62-.65,2.49,2.49,0,0,1,2.81-.89Zm10,12.1v1c0,1.19-.5,1.68-1.68,1.68H38.21c-1.28,0-1.76-.47-1.76-1.73v-.46c0-.43,0-.86,0-1.28A1.34,1.34,0,0,1,37.83,62H61.65c1.47,0,1.9.42,1.9,1.87Z"/><path class="cls-1" d="M26.06,27.23l4.31,4.31,1.14-1.1-4.32-4.31Z"/><polygon class="cls-1" points="73.85 27.18 72.76 26.06 68.41 30.38 69.55 31.51 73.87 27.2 73.85 27.18"/><rect class="cls-1" x="49.15" y="16.91" width="1.7" height="6.18"/><rect class="cls-1" x="20.91" y="49.13" width="6.16" height="1.72"/><rect class="cls-1" x="72.93" y="49.14" width="6.16" height="1.72"/><path class="cls-1" d="M45.15,36.25a7.07,7.07,0,0,1,4.61-2V32.45a8.31,8.31,0,0,0-6.15,2.79,7.83,7.83,0,0,0-2.22,5.6h1.74A7,7,0,0,1,45.15,36.25Z"/></svg>