<svg id="Layer_1" data-name="Layer 1" xmlns="http://www.w3.org/2000/svg" viewBox="0 0 100 100"><defs><style>.cls-1{fill:#d69d13;}</style></defs><path class="cls-1" d="M82.9,64.15a5,5,0,0,0-.66-2.48c-1.24-2.19-2.46-4.33-3.63-6.36h0L78.45,55a9.91,9.91,0,0,0-1-1.54,5.37,5.37,0,0,0-4.35-2H63.6l-1,.16-1,.16V50.15c0-.41,0-.82,0-1.24a1.21,1.21,0,0,1,.31-.83l7.29-8.34c.71-.82,1.41-1.63,2.14-2.43a4.06,4.06,0,0,0,.19-5.16c-.13-.16-.27-.31-.41-.46l-.58-.63.11-.13,6.49-7.42-7.34-7.36L56.24,28l9.06,9.05,3.9-4.45.42.32a2.14,2.14,0,0,1,.85,1.47A2.11,2.11,0,0,1,70,36c-.89,1-1.79,2-2.69,3.07L65.6,41l-2.17,2.48a1.11,1.11,0,0,1-.91.43H25.68a.88.88,0,0,0-.84.49c-.74,1.31-1.47,2.63-2.21,4L19,54.81,17.25,58a.88.88,0,0,0,.05,1.08,1.65,1.65,0,0,0,.4.32l.06,0,.2.14,1.33,1H17.5c.05.26.1.51.16.77l1.67,8.41c.26,1.29.52,2.58.77,3.88a1.06,1.06,0,0,0,1.24,1h2.48l-.26.76A6.09,6.09,0,0,0,26,82.72c3,1.85,5.81,1.43,8.45-1.3l.44-.45.41.49a6.21,6.21,0,0,0,10-.42,6.06,6.06,0,0,0,.71-5.6l-.26-.75h8.71c-.62-.64-1.23-1.28-1.84-1.93H44.69a1.51,1.51,0,0,1-.94-.32,6,6,0,0,0-4.7-1.12,6.18,6.18,0,0,0-3.68,2.15l-.42.8-.54-.6a6.22,6.22,0,0,0-6.67-2.18l-.95.25.09-.32,4-14.27q1.48-5.34,3-10.69a.88.88,0,0,1,.91-.7H60l1.16.06-.62.85-.17.23-7.48,8.55c-1,1.1-1.9,2.19-2.87,3.28a4,4,0,0,0,.11,5.42L59.61,74l1.54-1.19-.85,2a6.31,6.31,0,0,0,4.13,8.78A5.9,5.9,0,0,0,69,83,6.34,6.34,0,0,0,72.2,78.2l.07-.48H74.5c1.44,0,2.88,0,4.33,0a4.22,4.22,0,0,0,.94-.09,4,4,0,0,0,3.13-3.75c0-2.5,0-5,0-7.73ZM69.17,29.73,66.05,26.6,64.7,27.93l3.23,3.22-2.72,3.09-6.15-6.15.46-.4,10.19-8.92,4.83,4.81ZM37,74.43a4.41,4.41,0,0,1,3.1-1.26,4.38,4.38,0,0,1,3.08,7.46,4.38,4.38,0,0,1-7.46-3.12A4.33,4.33,0,0,1,37,74.43ZM29.5,73.17h.12a4.36,4.36,0,0,1-.15,8.72h0a4.25,4.25,0,0,1-3.05-1.28,4.36,4.36,0,0,1,3.13-7.44Zm2.31-26.65L24.52,72.77H22.47a.78.78,0,0,1-.7-.61L21.14,69l-1.8-9c-.07-.34-.14-.67-.2-1a1.09,1.09,0,0,1,.1-.67l6.11-11c.2-.37.4-.74.61-1.1a1,1,0,0,1,.75-.47h4.51l.64.07ZM59.68,71.13l-1.13-1-.46-.43-1.35-1.41-5.19-5.39a2.08,2.08,0,0,1,0-2.86l2.34-2.69,5.83-6.68Zm9.39,9.5A4.38,4.38,0,0,1,66,81.89a4.36,4.36,0,1,1,0-8.72,4.38,4.38,0,0,1,3.07,7.46Zm10.34-4.88h0a2.71,2.71,0,0,1-.6.06H72.63a.84.84,0,0,1-.84-.56,6.21,6.21,0,0,0-4.48-3.85,6,6,0,0,0-4.51.72l-.52.31-.63-.24,0-.64V68q0-6.2,0-12.37a2.08,2.08,0,0,1,1.3-2.09,2.41,2.41,0,0,1,.83-.17c1.48,0,2.95,0,4.43,0l2.1,0,.07.8V63a2.54,2.54,0,0,0,2.15,2.59h8.45l0,.53c0,.15,0,.21,0,.28v2.07c0,1.73,0,3.46,0,5.18A2.09,2.09,0,0,1,79.41,75.75ZM72.28,63.61V53.4l.55,0H73a3.68,3.68,0,0,1,3.42,1.93q1.28,2.25,2.56,4.48l1.41,2.49a2.29,2.29,0,0,1,.19.35l.51,1Z"/><path class="cls-1" d="M75.88,43.87h0c-1.56,0-3.14,0-4.71,0l-1,1.11-.7.81h5.72a1.33,1.33,0,0,1,.72.22l1.53,1,.18.11c.73.49,1.46,1,2.2,1.46a1.28,1.28,0,0,0,.6.21h0a1,1,0,0,0,.9-.64A.93.93,0,0,0,81,47.08l-2.85-1.91L76.4,44A.67.67,0,0,0,75.88,43.87Z"/><path class="cls-1" d="M60.09,35.72a1,1,0,0,0-.28-.7,1,1,0,0,0-.67-.29h0a.91.91,0,0,0-.65.29.93.93,0,0,0-.3.67,1,1,0,0,0,.28.67,1,1,0,0,0,1.64-.64Z"/><path class="cls-1" d="M50,36.65a1,1,0,0,0,1-.94,1,1,0,0,0-1-1,1,1,0,0,0-.95,1A1,1,0,0,0,50,36.65Z"/><path class="cls-1" d="M54.57,38.18h0a1,1,0,0,0,1-1,1,1,0,1,0-1.63.69A1,1,0,0,0,54.57,38.18Z"/><path class="cls-1" d="M56.09,33.62a1,1,0,0,0,1-1,.93.93,0,0,0-.27-.66,1,1,0,0,0-.68-.29.94.94,0,0,0-1,.93A1,1,0,0,0,56.09,33.62Z"/><path class="cls-1" d="M57.61,39.3a1,1,0,1,0,0,1.91.93.93,0,0,0,1-.94,1,1,0,0,0-.94-1Z"/><path class="cls-1" d="M50.84,40.93a1,1,0,0,0,.69.28.92.92,0,0,0,.94-1,1,1,0,0,0-.94-1h0a1,1,0,0,0-1,1A.94.94,0,0,0,50.84,40.93Z"/></svg>