<svg id="Layer_1" data-name="Layer 1" xmlns="http://www.w3.org/2000/svg" viewBox="0 0 100 100"><defs><style>.cls-1{fill:#d69d13;}</style></defs><path class="cls-1" d="M11.7,25.91a3.84,3.84,0,0,1,2.79-2.73,4.42,4.42,0,0,1,.89-.11h6.8c.94,0,1.49.46,1.48,1.2s-.55,1.19-1.5,1.19h-6.5c-1.17,0-1.56.41-1.56,1.58s0,2.09,0,3.17H82.27c0-1.27.08-2.56,0-3.83,0-.33-.64-.65-1-.89-.18-.11-.48,0-.73,0H32.66c-1.23,0-1.79-.37-1.8-1.18s.56-1.21,1.77-1.21H63.16V19.84a2.45,2.45,0,0,1,2.76-2.75q4.45,0,8.91,0a2.42,2.42,0,0,1,2.69,2.67c0,1.07,0,2.13,0,3.31h3.14c2.6,0,4,1.43,4,4V30.9c0,1.39-.34,1.73-1.7,1.74h-.7v.83q0,14.1,0,28.2A1.14,1.14,0,0,0,83,62.82,10.72,10.72,0,0,1,88.12,74a10.75,10.75,0,0,1-19.84,3.5,1.1,1.1,0,0,0-1.1-.63q-15.48,0-31,0c-.61,0-.87.13-1,.77-.16,1.08-.41,2.15-.65,3.22a2.35,2.35,0,0,1-2.43,2c-2.49,0-5,0-7.48,0a2.34,2.34,0,0,1-2.39-2c-.26-1.14-.51-2.28-.69-3.44-.08-.49-.28-.61-.73-.58a6.33,6.33,0,0,1-4-.93,6,6,0,0,1-2.79-5.31q0-18.51,0-37v-1c-.87-.07-1.85.17-2.4-.77Zm4.85,6.77V50.6c2.09,0,4.14,0,6.18,0a.94.94,0,0,0,1-.58c1.6-2.93,3.24-5.84,4.85-8.76.32-.58.74-1,1.44-.81a1.25,1.25,0,0,1,.94,1.42v7.25h5.38c1.39,0,1.59.15,2,1.47H66.5c.89,0,1.43.44,1.44,1.16S67.41,53,66.48,53h-29a1.09,1.09,0,0,0-1.07.58c-1.83,3-3.69,5.92-5.53,8.88a1.22,1.22,0,0,1-1.44.67,1.21,1.21,0,0,1-.87-1.33c0-.84,0-1.69,0-2.54V55.88h-.9c-1.52,0-3-.08-4.56,0-1.74.12-2.28-1.15-1.38-2.3A2.64,2.64,0,0,0,22,53H16.49V70.58a3.61,3.61,0,0,0,4,4H67a10.85,10.85,0,0,1,12.86-13V53h-3.4a1.2,1.2,0,1,1,0-2.39c1.14,0,2.28,0,3.41,0V32.68Zm61,31a8.37,8.37,0,1,0,8.39,8.34A8.37,8.37,0,0,0,77.51,63.71ZM65.59,23h9.48v-3.5H65.59ZM34.85,51.52H30.77c-2.12,0-2.22-.1-2.22-2.25v-2.7l-.18,0-3.84,6.91c.36,0,.6,0,.84,0h4c1.23,0,1.6.39,1.61,1.62,0,.78,0,1.56,0,2.34l.18,0ZM33,77H24c.21,1.08.4,2.1.64,3.12a.68.68,0,0,0,.46.4q3.4,0,6.79,0a.58.58,0,0,0,.47-.31C32.56,79.13,32.75,78.06,33,77Z"/><path class="cls-1" d="M28.45,24.3a1.19,1.19,0,1,1-2.38-.07,1.19,1.19,0,0,1,2.38.07Z"/><path class="cls-1" d="M44,44.61h-9.2c-1.13,0-1.54-.41-1.54-1.52q0-3.3,0-6.58c0-1,.42-1.47,1.44-1.47H53.32c1,0,1.46.43,1.47,1.52v6.51c0,1.13-.41,1.54-1.53,1.54Zm-8.3-7.15v4.7H52.35v-4.7Z"/><path class="cls-1" d="M43.94,60.17h-6.8c-1,0-1.49-.45-1.5-1.2s.55-1.19,1.49-1.19H50.9c.94,0,1.49.45,1.49,1.19s-.55,1.2-1.49,1.2Z"/><path class="cls-1" d="M44,62.56H50.9c.94,0,1.49.45,1.49,1.2S51.84,65,50.9,65H37.13c-.94,0-1.49-.45-1.49-1.2s.55-1.19,1.5-1.2Z"/><path class="cls-1" d="M43.94,69.74c-2.27,0-4.54,0-6.8,0-1,0-1.5-.45-1.5-1.19s.55-1.2,1.49-1.2H50.9c.94,0,1.49.45,1.49,1.2s-.55,1.19-1.49,1.19C48.58,69.75,46.26,69.74,43.94,69.74Z"/><path class="cls-1" d="M63.2,36.24a3.59,3.59,0,1,1-3.62,3.51A3.59,3.59,0,0,1,63.2,36.24Zm1.15,3.59a1.21,1.21,0,0,0-1.18-1.2,1.2,1.2,0,0,0,0,2.39A1.21,1.21,0,0,0,64.35,39.83Z"/><path class="cls-1" d="M72.84,36.24a3.59,3.59,0,1,1-3.69,3.45A3.59,3.59,0,0,1,72.84,36.24Zm1.09,3.59a1.19,1.19,0,1,0-2.38,0,1.19,1.19,0,1,0,2.38,0Z"/><path class="cls-1" d="M72.73,51.76a1.19,1.19,0,1,1-1.22-1.16A1.2,1.2,0,0,1,72.73,51.76Z"/><path class="cls-1" d="M77.49,76.78a4.72,4.72,0,1,1,4.75-4.66A4.71,4.71,0,0,1,77.49,76.78Zm0-2.39a2.32,2.32,0,1,0-2.31-2.34A2.33,2.33,0,0,0,77.51,74.39Z"/></svg>