<svg id="Layer_1" data-name="Layer 1" xmlns="http://www.w3.org/2000/svg" viewBox="0 0 100 100"><defs><style>.cls-1{fill:#d69d13;}</style></defs><path class="cls-1" d="M48,25.71c17.25.37,30.76,5,41.77,15.83,2.11,2.08,3.82,4.56,5.75,6.83,1,1.14.84,2.14,0,3.33a51.13,51.13,0,0,1-32,21c-18.39,4-35.37.73-50.15-11.3-3.36-2.72-6-6.38-8.91-9.62-1-1.13-.92-2.18,0-3.45,8-11.22,18.88-18,32.17-20.95C41,26.37,45.55,26.06,48,25.71Zm2,3C34.43,29.09,20.73,34,10.21,45.9c-4.26,4.82-4.31,3.36,0,8.27,10.12,11.48,23.26,16.73,38.3,17,16.71.37,31.15-5.16,42.2-18.13,3-3.53,2.77-2.55.1-6-.34-.45-.71-.87-1.08-1.29C79.1,34,65.54,29.1,50,28.68Z"/><path class="cls-1" d="M50,66A16,16,0,1,1,66,50,16,16,0,0,1,50,66ZM50,37A13,13,0,1,0,63,50.08,13,13,0,0,0,50,37Z"/><path class="cls-1" d="M50,57.12a7,7,0,0,1-7.13-7A7.19,7.19,0,0,1,50,42.87,7.08,7.08,0,0,1,57.11,50,7,7,0,0,1,50,57.12Zm-4.15-7a4.25,4.25,0,0,0,4.25,4.13A4.34,4.34,0,0,0,54.22,50a4.29,4.29,0,0,0-4.29-4.11A4.19,4.19,0,0,0,45.83,50.11Z"/></svg>