<svg id="Layer_1" data-name="Layer 1" xmlns="http://www.w3.org/2000/svg" viewBox="0 0 100 100"><defs><style>.cls-1{opacity:0.8;}.cls-2{fill:none;stroke:#d69d13;stroke-miterlimit:10;stroke-width:1.65px;}.cls-3{fill:#d69d13;}</style></defs><g class="cls-1"><path class="cls-2" d="M76.07,30.45H74.76v-4a.79.79,0,0,0-1.57,0v4H71v-4a.78.78,0,0,0-.78-.78h0a.79.79,0,0,0-.79.78v4H68.13a.39.39,0,0,0-.39.39v.9a.39.39,0,0,0,.39.39h0a.46.46,0,0,1,.46.46v3.27a3.58,3.58,0,0,0,2.23,3.31V61.55a2.73,2.73,0,1,1-5.46,0V48.34a5.29,5.29,0,0,0-5.29-5.29H58.74V24.88a6.28,6.28,0,0,0-6.28-6.28H33.21a6.28,6.28,0,0,0-6.28,6.28V75.07H25.05a1.52,1.52,0,0,0-1.51,1.51v3.31a1.52,1.52,0,0,0,1.51,1.51H60.62a1.51,1.51,0,0,0,1.51-1.51V76.58a1.51,1.51,0,0,0-1.51-1.51H58.74V45.61h1.33a2.74,2.74,0,0,1,2.73,2.73V61.55a5.29,5.29,0,1,0,10.58,0V39.17a3.51,3.51,0,0,0,2.23-3.27V32.59a.46.46,0,0,1,.46-.46.39.39,0,0,0,.39-.39v-.9A.39.39,0,0,0,76.07,30.45ZM55.65,36.62a2.48,2.48,0,0,1-2.48,2.48H32.51A2.49,2.49,0,0,1,30,36.62V25.73a2.49,2.49,0,0,1,2.49-2.48H53.17a2.48,2.48,0,0,1,2.48,2.48Z"/><path class="cls-3" d="M47,30h-3a.21.21,0,0,1-.21-.28l1.35-4.6a.23.23,0,0,0-.39-.21l-6.12,7a.23.23,0,0,0,.17.37h3a.23.23,0,0,1,.22.29l-1.35,4.59a.22.22,0,0,0,.38.22l6.12-7A.23.23,0,0,0,47,30Z"/></g></svg>