<svg id="Layer_1" data-name="Layer 1" xmlns="http://www.w3.org/2000/svg" viewBox="0 0 100 100"><defs><style>.cls-1{fill:#d69d13;}</style></defs><path class="cls-1" d="M37.22,67.65h31.6A2.16,2.16,0,1,1,69.1,72c-.16,0-.31,0-.47,0H5.77a2.58,2.58,0,0,1-1.68-.47,2.15,2.15,0,0,1-.71-2.4,2.11,2.11,0,0,1,2-1.46c3.94,0,7.89,0,11.83,0Z"/><path class="cls-1" d="M36.85,78H68a2.39,2.39,0,0,1,1.55.45,2.15,2.15,0,0,1,.76,2.38,2.19,2.19,0,0,1-2,1.51H5.55A2.17,2.17,0,0,1,5.24,78c.22,0,.43,0,.64,0Z"/><path class="cls-1" d="M17.72,63.17a2.12,2.12,0,0,1-2-1.3,2.18,2.18,0,0,1,.43-2.37,22.08,22.08,0,0,0,2.07-2.76,12.39,12.39,0,0,0-2-14.72A16.39,16.39,0,0,1,11.51,27.6a16,16,0,0,1,4.67-9.25,2.14,2.14,0,0,1,3.05-.07,2.2,2.2,0,0,1,.08,3.06,20.39,20.39,0,0,0-2,2.65,12.32,12.32,0,0,0,1.95,14.88,16.77,16.77,0,0,1,.23,23.48A2.31,2.31,0,0,1,17.72,63.17Z"/><path class="cls-1" d="M43.51,50.91A16.47,16.47,0,0,1,38.7,62.46a2.1,2.1,0,0,1-2.2.62A2.06,2.06,0,0,1,35,61.35a2.16,2.16,0,0,1,.66-1.93,11.79,11.79,0,0,0,3.23-5.81A12.13,12.13,0,0,0,35.59,42a16.57,16.57,0,0,1-4.9-12.88,16.22,16.22,0,0,1,4.77-10.71,2.16,2.16,0,1,1,3.11,3,11.76,11.76,0,0,0-3,4.87,12.08,12.08,0,0,0,3,12.53A17,17,0,0,1,43.51,50.91Z"/><path class="cls-1" d="M55.41,63.16a2,2,0,0,1-1.74-1.27,2,2,0,0,1,.4-2.35,13.66,13.66,0,0,0,2.44-3.45,12.39,12.39,0,0,0-2.3-14,16.37,16.37,0,0,1-4.93-10.43,16.37,16.37,0,0,1,4.78-13.28,2.16,2.16,0,1,1,3.1,3,12.12,12.12,0,0,0-3.35,6.21A12,12,0,0,0,57,38.71,16.81,16.81,0,0,1,62,49.05a16.44,16.44,0,0,1-4.52,13.21A2.35,2.35,0,0,1,55.41,63.16Z"/><path class="cls-1" d="M78.62,23.38H72.37v4.36a3.19,3.19,0,0,1,1.29-1,4.49,4.49,0,0,1,1.8-.37,3.52,3.52,0,0,1,2.82,1.09,4,4,0,0,1,.92,2.72,4.28,4.28,0,0,1-1,2.94,3.73,3.73,0,0,1-3,1.16,4.16,4.16,0,0,1-2.82-.94,3.69,3.69,0,0,1-1.26-2.54H72.3a3,3,0,0,0,1,1.81,2.86,2.86,0,0,0,1.89.63,2.72,2.72,0,0,0,2.17-.84,3.34,3.34,0,0,0,.72-2.23,2.86,2.86,0,0,0-.73-2.09,2.82,2.82,0,0,0-2.11-.75,3.42,3.42,0,0,0-1.68.4,2.73,2.73,0,0,0-1.11,1.1H71.29V22.34h7.33Z"/><path class="cls-1" d="M81.06,28.28A9,9,0,0,1,82,23.87a4,4,0,0,1,6.33,0,8.9,8.9,0,0,1,.9,4.41,9,9,0,0,1-.9,4.43,4,4,0,0,1-6.33,0A9.14,9.14,0,0,1,81.06,28.28Zm7,0a12.62,12.62,0,0,0-.22-2.59A3.18,3.18,0,0,0,86.93,24a3,3,0,0,0-3.63,0,3.18,3.18,0,0,0-.86,1.67,12.55,12.55,0,0,0-.23,2.59,12.83,12.83,0,0,0,.23,2.61,3.21,3.21,0,0,0,.86,1.68,3,3,0,0,0,3.63,0,3.21,3.21,0,0,0,.86-1.68A12.9,12.9,0,0,0,88,28.28Z"/><path class="cls-1" d="M96.72,33.71a3.79,3.79,0,0,1-1.57.31,2.58,2.58,0,0,1-2.7-2.77,2.76,2.76,0,0,1,2.92-2.89,3.4,3.4,0,0,1,1.37.28l-.23.77a2.19,2.19,0,0,0-1.14-.26,1.88,1.88,0,0,0-1.92,2.05,1.87,1.87,0,0,0,1.88,2A2.86,2.86,0,0,0,96.55,33Z"/><circle class="cls-1" cx="89.94" cy="21.12" r="1.21"/></svg>