<svg id="Layer_1" data-name="Layer 1" xmlns="http://www.w3.org/2000/svg" viewBox="0 0 100 100"><defs><style>.cls-1{opacity:0.8;}.cls-2{fill:#d59d13;}</style></defs><g class="cls-1"><path class="cls-2" d="M86.57,72.94H80.3a.8.8,0,0,1-.79-.8V45.3h-5a.79.79,0,0,1-.79-.79V40.85H26.3v3.66a.8.8,0,0,1-.79.79h-5V72.14a.8.8,0,0,1-.79.8H13.42a.79.79,0,0,1-.79-.8V45.3H2.46a.8.8,0,0,1-.37-1.5L37.92,25.24a.77.77,0,0,1,.36-.09h5.63a.8.8,0,0,1,.8.79v4.68H55.28V25.94a.79.79,0,0,1,.79-.79h6a.78.78,0,0,1,.37.09L97.85,43.78a.78.78,0,0,1,.48.73.79.79,0,0,1-.79.79H87.36V72.14A.8.8,0,0,1,86.57,72.94ZM81.1,71.35h4.67V44.51a.8.8,0,0,1,.8-.8h7.74l-32.41-17h-5v4.67a.79.79,0,0,1-.79.79H43.91a.79.79,0,0,1-.79-.79V26.74H38.48l-32.77,17h7.71a.79.79,0,0,1,.79.8V71.35h4.68V44.51a.8.8,0,0,1,.8-.8h5V40.05a.79.79,0,0,1,.8-.79h49a.79.79,0,0,1,.79.79v3.66h5a.8.8,0,0,1,.8.8Z"/><path class="cls-2" d="M74.48,72.94a.79.79,0,0,1-.79-.8V40.85H26.3V72.14a.8.8,0,1,1-1.59,0V40.05a.79.79,0,0,1,.8-.79h49a.79.79,0,0,1,.79.79V72.14A.79.79,0,0,1,74.48,72.94Z"/><path class="cls-2" d="M76.51,40.85h-53a.79.79,0,0,1-.79-.8V37.42a.79.79,0,0,1,.79-.8h53a.8.8,0,0,1,.79.8v2.63A.8.8,0,0,1,76.51,40.85ZM24.27,39.26H75.71v-1H24.27Z"/><path class="cls-2" d="M74.48,43.48h-49a.79.79,0,0,1-.8-.79V40.05a.79.79,0,0,1,.8-.79h49a.79.79,0,0,1,.79.79v2.64A.79.79,0,0,1,74.48,43.48ZM26.3,41.89H73.69v-1H26.3Z"/><path class="cls-2" d="M64.36,68.52H35.62a.79.79,0,0,1-.8-.79V59.91a2.74,2.74,0,0,1,2.73-2.73H62.44a2.73,2.73,0,0,1,2.72,2.73v7.82A.79.79,0,0,1,64.36,68.52ZM36.41,66.94H63.57v-7a1.14,1.14,0,0,0-1.13-1.14H37.55a1.14,1.14,0,0,0-1.14,1.14Z"/><path class="cls-2" d="M61.51,58.77h-23a.79.79,0,0,1-.68-.38.81.81,0,0,1,0-.77l3.12-6.15A.81.81,0,0,1,41.6,51H58.38a.8.8,0,0,1,.71.43l3.09,6.08a.77.77,0,0,1,.12.43A.79.79,0,0,1,61.51,58.77ZM39.77,57.18H60.21L57.9,52.62H42.08Z"/><path class="cls-2" d="M42.45,72.94H38.69a.8.8,0,0,1-.79-.8V67.73a.79.79,0,0,1,.79-.79h3.76a.79.79,0,0,1,.8.79v4.41A.8.8,0,0,1,42.45,72.94Zm-3-1.59h2.17V68.52H39.49Z"/><path class="cls-2" d="M61.3,72.94H57.54a.8.8,0,0,1-.8-.8V67.73a.79.79,0,0,1,.8-.79H61.3a.79.79,0,0,1,.79.79v4.41A.79.79,0,0,1,61.3,72.94Zm-3-1.59h2.18V68.52H58.33Z"/><path class="cls-2" d="M40.63,65.07a2.22,2.22,0,1,1,2.21-2.22A2.22,2.22,0,0,1,40.63,65.07Zm0-2.84a.63.63,0,0,0-.64.62.64.64,0,0,0,.64.63.63.63,0,0,0,0-1.25Z"/><path class="cls-2" d="M59.37,65.07a2.22,2.22,0,1,1,2.21-2.22A2.23,2.23,0,0,1,59.37,65.07Zm0-2.84a.62.62,0,0,0-.63.62.63.63,0,1,0,1.25,0A.62.62,0,0,0,59.37,62.23Z"/><path class="cls-2" d="M56.07,32.2H43.91a.79.79,0,0,1-.79-.79V22a.79.79,0,0,1,.79-.79H56.07a.79.79,0,0,1,.79.79v9.45A.79.79,0,0,1,56.07,32.2ZM44.71,30.62H55.28V22.75H44.71Z"/><path class="cls-2" d="M69.78,76.82H11.57a.8.8,0,0,1,0-1.59H69.78a.8.8,0,1,1,0,1.59Z"/><path class="cls-2" d="M85.94,78.83H45.66a.79.79,0,1,1,0-1.58H85.94a.79.79,0,1,1,0,1.58Z"/><path class="cls-2" d="M95.11,78.83h-5a.79.79,0,0,1,0-1.58h5a.79.79,0,1,1,0,1.58Z"/><path class="cls-2" d="M28.36,78.78H9.28a.8.8,0,0,1,0-1.59H28.36a.8.8,0,1,1,0,1.59Z"/></g></svg>