<svg id="Layer_1" data-name="Layer 1" xmlns="http://www.w3.org/2000/svg" viewBox="0 0 100 100"><defs><style>.cls-1{fill:#d69d13;}</style></defs><path class="cls-1" d="M49.5,18.28h1c.36.23.74.43,1.08.68Q66,29.5,80.33,40.07a10.47,10.47,0,0,1,1.39,1.5v1c-.35.76-.86,1.48-1.75,1.43a9.32,9.32,0,0,1-2.21-.67V75.66a5.72,5.72,0,0,1-6.05,6.06H28.29a6.89,6.89,0,0,1-1.11-.06,5.67,5.67,0,0,1-4.93-5.81q0-16,0-32v-.8c-.37.27-.63.47-.91.64A2,2,0,0,1,19,40.53c.19-.16.39-.3.59-.44Q31.45,31.4,43.28,22.74C45.34,21.23,47.43,19.76,49.5,18.28ZM50,22.73l-.26.17q-11.58,8.49-23.17,17a.92.92,0,0,0-.39.89q0,17.43,0,34.87c0,1.47.64,2.12,2.11,2.12H71.68c1.47,0,2.11-.65,2.11-2.11q0-17.45,0-34.88a1.06,1.06,0,0,0-.48-1c-4.24-3.08-8.46-6.19-12.69-9.29Z"/><path class="cls-1" d="M50,44a16.79,16.79,0,0,0-11.76,4.81,2,2,0,0,0-.69,1.89,1.88,1.88,0,0,0,1.36,1.53A2,2,0,0,0,41,51.65a12.85,12.85,0,0,1,18,0,3,3,0,0,0,.74.54,2,2,0,0,0,2.11-3.28A16.75,16.75,0,0,0,50,44Zm.5,7A10.19,10.19,0,0,0,43.2,53.7a2,2,0,0,0-.28,2.91,2,2,0,0,0,3,0,5.93,5.93,0,0,1,8.23,0,2.81,2.81,0,0,0,.87.56,2,2,0,0,0,2.32-.83A2,2,0,0,0,57,53.84,9.57,9.57,0,0,0,50.49,51ZM50,65.86a3,3,0,1,0-2.95-3A3,3,0,0,0,50,65.86Z"/><path class="cls-1" d="M50,44a16.75,16.75,0,0,1,11.85,4.88,2,2,0,0,1-2.11,3.28,3,3,0,0,1-.74-.54,12.85,12.85,0,0,0-18,0,2,2,0,0,1-2.14.62,1.88,1.88,0,0,1-1.36-1.53,2,2,0,0,1,.69-1.89A16.79,16.79,0,0,1,50,44Z"/><path class="cls-1" d="M50.49,51A9.57,9.57,0,0,1,57,53.84a2,2,0,0,1,.35,2.49,2,2,0,0,1-2.32.83,2.81,2.81,0,0,1-.87-.56,5.93,5.93,0,0,0-8.23,0,2,2,0,0,1-3,0,2,2,0,0,1,.28-2.91A10.19,10.19,0,0,1,50.49,51Z"/><path class="cls-1" d="M50,65.86a3,3,0,1,1,3-2.92A3,3,0,0,1,50,65.86Z"/></svg>