<svg id="Layer_1" data-name="Layer 1" xmlns="http://www.w3.org/2000/svg" viewBox="0 0 100 100"><defs><style>.cls-1{fill:#d69d13;}</style></defs><path class="cls-1" d="M85.07,62.69H76.18V56.05q0-6.25,0-12.5a27.44,27.44,0,0,0-1.71-9.9A25.8,25.8,0,0,0,64.33,21a25.49,25.49,0,0,0-18.28-3.95,25.46,25.46,0,0,0-16.34,9.36,25.93,25.93,0,0,0-5.89,16.93q0,6.21,0,12.41v6.89h-3.4c-1.73,0-3.46,0-5.19,0a1.54,1.54,0,0,0-1.61.82V64c.33.84.95.89,2,.88h.06a7.86,7.86,0,0,1,.84,0l.42,0V81.62c0,1.31.29,1.61,1.59,1.61h63c1.3,0,1.6-.3,1.6-1.6V64.89h2a1.22,1.22,0,0,0,1.19-.65,1,1,0,0,0,0-1A1.33,1.33,0,0,0,85.07,62.69ZM23.78,81H19.19V65h4.59ZM30,81H26.09V65H30ZM32.29,49c0-2.47,0-5,.12-7.51A17.5,17.5,0,0,1,47.78,25.38a1.92,1.92,0,0,1,.42,0h.66V53H32.48l-.1-.34a1.06,1.06,0,0,1-.09-.39C32.3,51.16,32.29,50.06,32.29,49Zm0,6.32H48.84v7.35H32.32ZM48.86,81H32.32V65H48.86Zm18.83,0H51.17V65H67.69ZM51.17,62.64V55.29H67.68v7.35Zm16.56-13V52c0,.12,0,.23,0,.37l0,.61H51.15V25.31l.5,0a15,15,0,0,1,5,1.21A17.54,17.54,0,0,1,67.35,39.49a17,17,0,0,1,.36,3.44C67.74,45.16,67.74,47.38,67.73,49.6ZM73.92,81H70V65l.62,0,.43,0h2.87ZM74,56.83v4.73A3.17,3.17,0,0,1,74,62l0,.65h-4V56.2q0-6.37,0-12.74a19.85,19.85,0,0,0-1.15-7.11c-2.59-6.85-7.4-11.15-14.3-12.77A19.09,19.09,0,0,0,36.87,28a18.94,18.94,0,0,0-6.31,10.76,23.73,23.73,0,0,0-.46,4.76c0,4.31,0,8.69,0,12.92v6.19H26.14l-.07-.57a2.56,2.56,0,0,1,0-.39c0-2,0-4,0-6,0-4.55-.05-9.26.1-13.89A22.79,22.79,0,0,1,35.3,24.05a23.2,23.2,0,0,1,16.8-5,23.14,23.14,0,0,1,13.55,5.72,23.39,23.39,0,0,1,7.86,13.55,27.47,27.47,0,0,1,.45,4.8C74,47.7,74,52.34,74,56.83ZM80.83,81H76.24V65h4.59Z"/><path class="cls-1" d="M63.38,35.34a1,1,0,0,0-.8-.13,1.48,1.48,0,0,0-.83.75q-1.66,3.09-3.29,6.2a2.24,2.24,0,0,0-.2.54l0,.07A1.17,1.17,0,0,0,59,43.93a1,1,0,0,0,1.26-.44c1.33-2.42,2.5-4.61,3.57-6.69A1.08,1.08,0,0,0,63.38,35.34Z"/><path class="cls-1" d="M57.06,46h0a1.09,1.09,0,0,0-.78.34,1,1,0,0,0-.32.75,1.14,1.14,0,0,0,1,1.09,1.28,1.28,0,0,0,.82-.33,1,1,0,0,0,0-1.52A1.1,1.1,0,0,0,57.06,46Z"/><path class="cls-1" d="M37.9,48.12a1,1,0,0,0,1.21-.38,3.66,3.66,0,0,0,.36-.6l.85-1.59c.77-1.45,1.55-2.89,2.31-4.35A1.38,1.38,0,0,0,42.74,40a1,1,0,0,0-.74-.57,1.22,1.22,0,0,0-1.34.79Q39,43.26,37.4,46.34a3.09,3.09,0,0,0-.19.53.76.76,0,0,0,0,.11A1.09,1.09,0,0,0,37.9,48.12Z"/><path class="cls-1" d="M44,37.37h0a1.09,1.09,0,0,0,1.07-1.11,1,1,0,0,0-1.09-1h0a1.08,1.08,0,0,0-.78.31A1.1,1.1,0,0,0,44,37.37Z"/></svg>