<svg id="Layer_1" data-name="Layer 1" xmlns="http://www.w3.org/2000/svg" viewBox="0 0 100 100"><defs><style>.cls-1{fill:#d69d1a;}</style></defs><path class="cls-1" d="M62.2,64.93c0-5.8,0-11.59,0-17.39,0-4.11,0-4.14-4.15-4.12A17.53,17.53,0,0,1,53.84,43a11.17,11.17,0,0,1,.9-21.89,2,2,0,0,0,1.76-1.39,10.27,10.27,0,0,1,19,.09,1.69,1.69,0,0,0,1.57,1.27,11.16,11.16,0,0,1,2.06,21.59,20,20,0,0,1-4.25.76c-1.09.12-2.21,0-3.32,0a1.67,1.67,0,0,0-1.81,1.81c0,.26,0,.51,0,.77V83.81c0,.31,0,.62,0,.93a1.77,1.77,0,0,1-1.9,1.86c-1.16,0-2.33,0-3.49,0-1.48,0-2.13-.66-2.14-2.14V64.93Z"/><path class="cls-1" d="M35,64.09H19.76c-1.93,0-2.59-.67-2.59-2.63q0-5.93,0-11.85c0-1.71.73-2.45,2.43-2.45H50.38c1.72,0,2.46.72,2.47,2.42q0,6.06,0,12.11c0,1.66-.73,2.39-2.4,2.39Z"/><path class="cls-1" d="M51,77.27c0,1.25,0,2.46,0,3.68,0,1,0,2,0,3.07a2.8,2.8,0,0,1-5.6-.22c0-1.82,0-3.64,0-5.46V77.28H24.7v1.51c0,1.65,0,3.3,0,4.95A2.83,2.83,0,1,1,19,83.66c0-2.1,0-4.2,0-6.39l-1-.06a4.7,4.7,0,1,1,.13-9.39c4.58,0,9.15,0,13.73,0,6.57,0,13.13,0,19.7,0a4.69,4.69,0,0,1,4.43,6.85,4.49,4.49,0,0,1-3.72,2.51C51.93,77.23,51.51,77.23,51,77.27Z"/></svg>