<svg id="Layer_1" data-name="Layer 1" xmlns="http://www.w3.org/2000/svg" viewBox="0 0 100 100"><defs><style>.cls-1{fill:#d69d1a;}</style></defs><path class="cls-1" d="M82.24,20.72H71.7c0-4.18-9.72-7.57-21.7-7.57s-21.71,3.39-21.71,7.57H17.76a3,3,0,0,0-3,3v6.84a3,3,0,0,0,3,3H82.24a3,3,0,0,0,3-3V23.71A3,3,0,0,0,82.24,20.72Z"/><path class="cls-1" d="M33.3,82.68H15.67a.9.9,0,0,1-.9-.9V48a.9.9,0,0,1,.9-.9H33.3a.9.9,0,0,1,.9.9V81.78a.9.9,0,0,1-.9.9Zm-16.73-1.8H32.4v-32H16.57v32Z"/><path class="cls-1" d="M84.2,76.41H37.76a.9.9,0,0,1-.9-.9V48a.9.9,0,0,1,.9-.9H84.2a.9.9,0,0,1,.9.9V75.51a.9.9,0,0,1-.9.9Zm-45.54-1.8H83.3V48.9H38.66V74.61Z"/><path class="cls-1" d="M95.18,38.38l-10.3-11A1.15,1.15,0,0,0,84,27H74.5l7.33,11.34v7H68.75v-7L64.41,27H54.32l1.35,11.34v7H42.58v-7L44.23,27H34.13L29.5,38.38h0v7H16.22v-7L24,27H16a1.15,1.15,0,0,0-.85.33l-10.3,11a.61.61,0,0,0-.15.59v6.67h6.21V86a.9.9,0,0,0,.9.9H88.22a.9.9,0,0,0,.9-.9V45.64h6.21V39A.61.61,0,0,0,95.18,38.38ZM87.32,85.05H12.68V45.64H87.32Z"/></svg>