<svg id="Layer_1" data-name="Layer 1" xmlns="http://www.w3.org/2000/svg" viewBox="0 0 100 100"><defs><style>.cls-1{fill:#d69d1a;}</style></defs><path class="cls-1" d="M85.7,23.92c1.48-3.18,2.21-6.49-.33-9.29h0c-2.8-2.54-6.11-1.81-9.29-.34-4.87,2.27-8.53,5.9-12.31,9.49a54.62,54.62,0,0,1-5.93,4.89s-21.93-5.15-35.59-6.29A6.72,6.72,0,0,0,15,26.66c-1.16,2.5,2.57,4.37,4.28,5.09,6.17,2.62,10.74,4.74,16.2,7.58A31.43,31.43,0,0,1,43.39,45a83.1,83.1,0,0,1-5.73,8.12C32.28,59.92,29.77,63.2,17.8,62c-1.6-.16-3.81.33-4.6,2.15-1.06,2.45,1.57,2.65,2.76,3.16A32.1,32.1,0,0,1,26,74a32.1,32.1,0,0,1,6.67,10c.51,1.19.71,3.82,3.16,2.76,1.82-.79,2.31-3,2.15-4.6-1.17-12,2.11-14.48,8.9-19.86A83.1,83.1,0,0,1,55,56.61a31.43,31.43,0,0,1,5.68,7.92c2.84,5.46,5,10,7.58,16.2.72,1.71,2.59,5.44,5.08,4.28a6.7,6.7,0,0,0,4.28-7.26c-1.13-13.66-6.28-35.59-6.28-35.59a54.62,54.62,0,0,1,4.89-5.93C79.81,32.45,83.44,28.79,85.7,23.92Z"/></svg>