<svg id="Layer_1" data-name="Layer 1" xmlns="http://www.w3.org/2000/svg" viewBox="0 0 100 100"><defs><style>.cls-1{fill:#d69d1a;}</style></defs><path class="cls-1" d="M97.51,56.69a17.29,17.29,0,0,0-.71-5.11,6.39,6.39,0,0,0-1.37-2.52A7.24,7.24,0,0,0,94,48a12.8,12.8,0,0,0-2.18-1.13,27.63,27.63,0,0,0-4.1-1.31,100,100,0,0,0-10.35-1.83,3.42,3.42,0,0,1-1-.21,4.37,4.37,0,0,1-1.58-1,45.41,45.41,0,0,0-4.34-3.16,29.75,29.75,0,0,0-6-3.36A43.85,43.85,0,0,0,57,33.34a58.3,58.3,0,0,0-10.09-1.75,45.68,45.68,0,0,0-10.26.07,34.15,34.15,0,0,0-5.8,1.22,25,25,0,0,0-5.42,2.3c-.38.22-1.56,1-3.91,2.67a38.54,38.54,0,0,1-3.57,2.39,22.35,22.35,0,0,1-4.84,1.7c-1.58.45-1.91.46-4.22,1.11a9.65,9.65,0,0,0-3.91,1.89A4.56,4.56,0,0,0,4,46.19c-1.42,2.43-1.46,5.15-1.52,9.3,0,.5,0,.76,0,1.51,0,1.28,0,1.64,0,2.15a4.52,4.52,0,0,0,0,.77,3.9,3.9,0,0,0,1.07,2,3.7,3.7,0,0,0,2.14,1,4.11,4.11,0,0,0,.93,0l2.65,0a10.16,10.16,0,0,1-.22-2.14,10.31,10.31,0,0,1,.8-4,10.11,10.11,0,0,1,2.21-3.27,10,10,0,0,1,3.26-2.2,10.31,10.31,0,0,1,8,0,9.92,9.92,0,0,1,3.27,2.2,10.29,10.29,0,0,1,2.8,9.34l18.16,0h22a10.59,10.59,0,0,1-.2-2,10.29,10.29,0,0,1,3-7.27,9.92,9.92,0,0,1,3.27-2.2,10.28,10.28,0,0,1,8,0A9.92,9.92,0,0,1,87,53.49a10.29,10.29,0,0,1,3,7.27,10.79,10.79,0,0,1-.2,2.05h5.74a1,1,0,0,0,.67,0,1.29,1.29,0,0,0,.6-.79,8.18,8.18,0,0,0,.53-1.75A26.85,26.85,0,0,0,97.51,56.69ZM44.25,43.09l-20.77-.2a.41.41,0,0,1-.28-.69,23.23,23.23,0,0,1,5.14-3.93,25.13,25.13,0,0,1,7.28-2.63,32.67,32.67,0,0,1,7.76-.8.4.4,0,0,1,.39.35c.29,2.48.59,5,.88,7.45A.4.4,0,0,1,44.25,43.09Zm24.9.94L49,43.28a.53.53,0,0,1-.51-.46c-.34-2.44-.67-4.89-1-7.33a.53.53,0,0,1,.57-.6,40,40,0,0,1,11.38,2.36,31.55,31.55,0,0,1,8,4.17,24.54,24.54,0,0,1,2,1.68A.54.54,0,0,1,69.15,44Z"/><path class="cls-1" d="M84.91,54.78l-.15-.12c-.11-.1-.22-.18-.34-.27a6.18,6.18,0,0,0-.53-.36L83.77,54l-.52-.28-.18-.08a5.72,5.72,0,0,0-.68-.28l-.25-.09a8,8,0,0,0-2.41-.37,8.43,8.43,0,0,0-1,.06c-.26,0-.52.08-.78.14l-.56.15-.37.13-.53.22-.35.16-.34.19-.32.19a3.62,3.62,0,0,0-.32.22c-.15.11-.3.22-.45.35l-.15.12a8.41,8.41,0,0,0-.79.79l-.16.19c-.1.12-.2.25-.29.38a4.38,4.38,0,0,0-.28.42l-.12.19c-.09.15-.17.31-.25.47a1.51,1.51,0,0,0-.11.22,7.1,7.1,0,0,0-.28.69l-.06.18a7.91,7.91,0,0,0-.39,2.45,8,8,0,0,0,.26,2c0,.17.1.34.16.51a7.53,7.53,0,0,0,.36.89,6.29,6.29,0,0,0,.37.67,6.9,6.9,0,0,0,.42.63l.12.15c.12.15.24.3.37.44s.26.27.39.4a5.08,5.08,0,0,0,.43.38l.3.24a7.63,7.63,0,0,0,1.13.7l.35.17.53.22.37.12.56.16c.26.06.52.1.78.14a8.43,8.43,0,0,0,1,.06,7.7,7.7,0,0,0,2.41-.38l.25-.08a5.72,5.72,0,0,0,.68-.28l.18-.08a8.86,8.86,0,0,0,1.28-.8,2.11,2.11,0,0,0,.23-.19,5.08,5.08,0,0,0,.43-.38,7.58,7.58,0,0,0,.76-.84l.12-.15a7.86,7.86,0,0,0,1.3-2.68,7.74,7.74,0,0,0,.27-2.05A7.9,7.9,0,0,0,84.91,54.78Z"/><path class="cls-1" d="M25,55.17a3.61,3.61,0,0,0-.35-.33l-.28-.24L24,54.31l-.32-.22-.32-.19L23,53.71l-.35-.16-.53-.22-.37-.13-.19-.05L21,53l-.39-.07-.39,0-.2,0-.61,0a8.43,8.43,0,0,0-1,.06c-.26,0-.52.08-.78.14l-.56.15-.37.13-.54.22-.34.16-.34.19-.33.19-.31.22a3.87,3.87,0,0,0-.45.35l-.15.12a8.41,8.41,0,0,0-.79.79c0,.06-.11.12-.16.19s-.2.25-.29.38a4.38,4.38,0,0,0-.28.42,1,1,0,0,0-.12.19c-.09.15-.18.31-.26.47s-.07.14-.1.22a5.24,5.24,0,0,0-.28.69l-.07.18a8,8,0,0,0-.09,4.58l.12.41c.11.3.23.6.37.89s.23.45.36.67.28.43.43.63l.11.15.37.44c.13.14.26.27.4.4a5.08,5.08,0,0,0,.43.38l.3.24a7.63,7.63,0,0,0,1.13.7l.34.17.54.22.37.12.56.16c.26.06.52.1.78.14a8.43,8.43,0,0,0,1,.06l.61,0,.2,0,.39,0,.39-.07.57-.14.19-.06.37-.12.53-.22L23,67.8a7.63,7.63,0,0,0,1.13-.7l.23-.18.36-.31.14-.13a1.59,1.59,0,0,0,.13-.13,7.89,7.89,0,0,0,0-11.18Z"/></svg>