<svg id="Layer_1" data-name="Layer 1" xmlns="http://www.w3.org/2000/svg" viewBox="0 0 1080 1080"><defs><style>.cls-1,.cls-2{fill:#fff;}.cls-1{stroke:#fff;stroke-miterlimit:10;stroke-width:4.57px;}.cls-3{fill:#d69e14;}</style></defs><path class="cls-1" d="M122.56,624h3.86a28.52,28.52,0,0,1,20.72,8.37,26.74,26.74,0,0,1,8.54,19.72q0,11.35-8.83,19.55t-19.49,8.19h-.94v32h-3.86Zm3.86,52.55h.94a24.29,24.29,0,0,0,17-41.78q-7.42-7.38-17-7.38h-.94Z"/><path class="cls-1" d="M203.09,621.91,247,711.81h-4.1l-16.62-33.48H179.32l-16.38,33.48h-3.63Zm-.36,8.08-21.88,44.94h44Z"/><path class="cls-1" d="M270.27,624h5a27.77,27.77,0,0,1,20,8.37q8.6,8.37,8.6,19.67t-8.78,19.6Q286.31,680,276.24,680h-.82l30.2,31.84h-5L274,684v27.86h-3.75ZM274,676.57h2.1a23,23,0,0,0,16.74-7.25,23.9,23.9,0,0,0-.23-34.53q-7.5-7.38-17.1-7.38H274Z"/><path class="cls-1" d="M328.91,624h3.75v32.19L369.76,624h4.68l-40.15,35,50.45,52.79h-5.15L332.77,663v48.81h-3.86Z"/><path class="cls-1" d="M501.55,713.09h-1.29a42.56,42.56,0,0,1-22.47-6.32A46.44,46.44,0,0,1,461.34,690a44.11,44.11,0,0,1-6-22.3,43.56,43.56,0,0,1,13.46-32A44,44,0,0,1,501,622.26a46.48,46.48,0,0,1,23.76,6.56v4.33A41.45,41.45,0,0,0,501,625.66a42.06,42.06,0,0,0-41.79,42,40.65,40.65,0,0,0,12.29,29.67A40.05,40.05,0,0,0,501,709.7a41.45,41.45,0,0,0,23.76-7.49v4.33A43.4,43.4,0,0,1,501.55,713.09Z"/><path class="cls-1" d="M551.53,624H583v3.39H555.39v47.76h23.06v3.39H555.39v29.85H583v3.4H551.53Z"/><path class="cls-1" d="M670.33,624h3.4v89.07l-64.61-79.47v78.19h-3.4V622.73l64.61,79.36Z"/><path class="cls-1" d="M740,624v3.39H720v84.4h-3.87v-84.4H695.85V624Z"/><path class="cls-1" d="M762.09,624h5a27.75,27.75,0,0,1,20,8.37q8.61,8.37,8.61,19.67t-8.78,19.6Q778.14,680,768.06,680h-.81l30.19,31.84h-5L765.84,684v27.86h-3.75Zm3.75,52.55H768a23,23,0,0,0,16.74-7.25,23.91,23.91,0,0,0-.24-34.53q-7.49-7.38-17.09-7.38h-1.52Z"/><path class="cls-1" d="M859.24,621.91l43.89,89.9H899l-16.63-33.48H835.48l-16.39,33.48h-3.62Zm-.35,8.08L837,674.93h44Z"/><path class="cls-1" d="M930.29,624v84.39h27.15v3.4h-31V624Z"/><path class="cls-2" d="M292,763.63h1.55a11.48,11.48,0,0,1,8.34,3.36,10.77,10.77,0,0,1,3.44,7.94,10.37,10.37,0,0,1-3.56,7.86,11.3,11.3,0,0,1-7.84,3.3h-.38v12.85H292Zm1.55,21.14h.38a9.89,9.89,0,0,0,0-19.78h-.38Z"/><path class="cls-2" d="M322.75,763.63h2a11.18,11.18,0,0,1,8,3.36,10.68,10.68,0,0,1,3.46,7.91,10.5,10.5,0,0,1-3.53,7.89,10.86,10.86,0,0,1-7.58,3.34h-.33L337,798.94h-2l-10.69-11.2v11.2h-1.51Zm1.51,21.14h.84a9.28,9.28,0,0,0,6.74-2.92,10,10,0,0,0-7-16.86h-.61Z"/><path class="cls-2" d="M354.3,763.63H367V765H355.86v19.22h9.27v1.36h-9.27v12H367v1.36H354.3Z"/><path class="cls-2" d="M420.28,763.63v35.31h-1.56V765.46L402.05,799.6l-16.57-34.14v33.48h-1.42V763.63h2.26l15.87,32.58,15.92-32.58Z"/><path class="cls-2" d="M440,763.63h1.56v35.31H440Z"/><path class="cls-2" d="M472,799.6h-.46a9.92,9.92,0,0,1-7.33-3,10.34,10.34,0,0,1-3-7.58V763.63h1.56V789a9.08,9.08,0,0,0,2.59,6.64,9.08,9.08,0,0,0,12.78,0A9.11,9.11,0,0,0,480.7,789V763.63h1.55v25.28a10.46,10.46,0,0,1-3,7.65A9.81,9.81,0,0,1,472,799.6Z"/><path class="cls-2" d="M537.91,763.63v35.31h-1.55V765.46L519.69,799.6l-16.58-34.14v33.48H501.7V763.63H504l15.87,32.58,15.91-32.58Z"/><path class="cls-2" d="M587.78,763.63v34h10.93v1.36H586.23V763.63Z"/><path class="cls-2" d="M615.81,763.63h1.55v35.31h-1.55Z"/><path class="cls-2" d="M652,799.74l-17.57-36.11h1.7l16,32.72,15.92-32.72h1.5Z"/><path class="cls-2" d="M686.68,763.63h1.55v35.31h-1.55Z"/><path class="cls-2" d="M733.91,763.63h1.37v35.83l-26-32v31.46h-1.37V763.11l26,31.93Z"/><path class="cls-2" d="M768,785.48v-1.37h13.23v12.76a17.19,17.19,0,0,1-9.32,2.59h-.52a17.13,17.13,0,0,1-9-2.54,18.73,18.73,0,0,1-6.62-6.76,18.29,18.29,0,0,1,15.94-27.24,18.77,18.77,0,0,1,9.56,2.63v1.75a16.66,16.66,0,0,0-9.56-3,16.92,16.92,0,0,0-16.81,16.88,16.37,16.37,0,0,0,4.94,11.94,16.13,16.13,0,0,0,11.87,5,18.63,18.63,0,0,0,8-2V785.48Z"/><polygon class="cls-3" points="397.56 280.26 397.56 568.81 498.14 568.81 498.14 568.49 498.14 568.49 498.29 351.27 526.59 367.75 526.59 568.8 526.58 568.8 526.58 568.81 539.8 568.81 539.94 375.48 568.25 391.89 568.25 568.81 579.19 568.81 579.19 568.81 579.17 568.81 579.31 398.5 607.62 414.75 607.62 568.81 607.54 568.81 607.54 568.81 618.54 568.81 618.69 421.1 646.99 437.74 646.99 568.81 657.66 568.81 657.8 443.98 686.11 460.37 686.11 280.26 397.56 280.26"/></svg>