<svg id="Layer_1" data-name="Layer 1" xmlns="http://www.w3.org/2000/svg" viewBox="0 0 100 100"><defs><style>.cls-1{fill:#fff;}</style></defs><path class="cls-1" d="M64.75,32.09A3.27,3.27,0,1,0,68,35.36,3.27,3.27,0,0,0,64.75,32.09Z"/><path class="cls-1" d="M50.23,36.28A13.72,13.72,0,1,0,64,50,13.74,13.74,0,0,0,50.23,36.28Zm0,22.51A8.79,8.79,0,1,1,59,50,8.8,8.8,0,0,1,50.23,58.79Z"/><path class="cls-1" d="M61.12,77.85H38.88A16.74,16.74,0,0,1,22.15,61.12V38.88A16.74,16.74,0,0,1,38.88,22.15H61.12A16.74,16.74,0,0,1,77.85,38.88V61.12A16.74,16.74,0,0,1,61.12,77.85ZM38.88,27.39A11.5,11.5,0,0,0,27.39,38.88V61.12A11.5,11.5,0,0,0,38.88,72.61H61.12A11.5,11.5,0,0,0,72.61,61.12V38.88A11.5,11.5,0,0,0,61.12,27.39Z"/></svg>