<svg id="Layer_1" data-name="Layer 1" xmlns="http://www.w3.org/2000/svg" viewBox="0 0 100 100"><defs><style>.cls-1{fill:#fff;}</style></defs><path class="cls-1" d="M77.25,32.81a22.49,22.49,0,0,1-5.56,1.58c.89-.15,2.21-1.76,2.73-2.42a10.15,10.15,0,0,0,1.85-3.36c0-.1.08-.22,0-.29a.32.32,0,0,0-.29,0,27.86,27.86,0,0,1-6.59,2.52.43.43,0,0,1-.45-.12,6.34,6.34,0,0,0-.58-.58,11.52,11.52,0,0,0-3.19-2,11.05,11.05,0,0,0-4.89-.79,11.83,11.83,0,0,0-4.65,1.31,12,12,0,0,0-3.74,3.06,11.54,11.54,0,0,0-2.24,4.48A12,12,0,0,0,49.51,41c0,.27,0,.31-.23.27-9.05-1.35-16.55-4.59-22.63-11.52-.27-.3-.41-.3-.63,0-2.66,4-1.37,10.41,2,13.56.44.42.9.84,1.39,1.23A11.75,11.75,0,0,1,25,43.32c-.26-.16-.4-.07-.42.23a7.28,7.28,0,0,0,.07,1.3,11.6,11.6,0,0,0,7.16,9.25,7.18,7.18,0,0,0,1.45.45,13.26,13.26,0,0,1-4.29.13c-.31-.06-.43.09-.31.39,1.89,5.14,6,6.67,9,7.54.41.07.82.07,1.23.17l-.07.07c-1,1.54-4.52,2.69-6.15,3.26a22,22,0,0,1-9.34,1.19c-.5-.07-.61-.06-.74,0s0,.21.14.34c.64.42,1.29.79,1.95,1.15a30.59,30.59,0,0,0,6.24,2.5c11.21,3.1,23.85.82,32.27-7.55,6.61-6.57,8.93-15.63,8.93-24.7,0-.36.42-.55.67-.74a21.63,21.63,0,0,0,4.39-4.57,1.37,1.37,0,0,0,.29-.87v0C77.47,32.66,77.47,32.71,77.25,32.81Z"/></svg>