<svg id="Layer_1" data-name="Layer 1" xmlns="http://www.w3.org/2000/svg" viewBox="0 0 100 100"><defs><style>.cls-1,.cls-2{fill:#fff;}.cls-2{fill-rule:evenodd;}</style></defs><path class="cls-1" d="M22.31,77.76l4-14.85a27.49,27.49,0,1,1,11,10.85ZM38,68.19l.94.56a22.33,22.33,0,1,0-7.63-7.56l.57,1-2.22,8.29Z"/><path class="cls-2" d="M60.47,53.47c-1.13-.67-2.6-1.42-3.93-.88-1,.42-1.67,2-2.33,2.83a1,1,0,0,1-1.26.27,17.76,17.76,0,0,1-8.88-7.6,1.09,1.09,0,0,1,.14-1.49A5.94,5.94,0,0,0,45.82,44a5.72,5.72,0,0,0-.72-3.1c-.53-1.15-1.13-2.8-2.29-3.45a3.13,3.13,0,0,0-3.4.51A6.93,6.93,0,0,0,37,43.42a7.82,7.82,0,0,0,.22,1.74A14.39,14.39,0,0,0,38.9,49a28.62,28.62,0,0,0,1.74,2.64,26.67,26.67,0,0,0,7.54,7,22.61,22.61,0,0,0,4.71,2.24c1.84.61,3.48,1.24,5.47.86a6.61,6.61,0,0,0,5-3.69,3.17,3.17,0,0,0,.23-1.89C63.28,54.88,61.52,54.1,60.47,53.47Z"/></svg>